<?xml version="1.0" standalone="no"?>
<!DOCTYPE svg PUBLIC "-//W3C//DTD SVG 20010904//EN"
 "http://www.w3.org/TR/2001/REC-SVG-20010904/DTD/svg10.dtd">
<svg version="1.0" xmlns="http://www.w3.org/2000/svg"
 width="473.000000pt" height="1024.000000pt" viewBox="50 280 340 340"
 preserveAspectRatio="xMidYMid meet">

<g transform="translate(0.000000,1024.000000) scale(0.100000,-0.100000)"
fill="#000000" stroke="none">
<path d="M2484 7272 c-81 -24 -140 -60 -198 -120 -57 -59 -77 -87 -120 -172
-81 -157 -112 -324 -103 -550 13 -337 136 -582 332 -665 22 -9 78 -19 125 -22
254 -15 478 136 553 372 29 93 39 196 27 287 -29 223 -78 277 -245 278 -157 0
-246 -25 -288 -81 -42 -57 -30 -190 22 -230 22 -18 37 -20 99 -17 l72 3 0 -33
c0 -72 -46 -113 -130 -116 -107 -2 -172 123 -174 334 -1 139 14 200 61 246 45
46 88 45 177 -1 52 -27 79 -35 119 -35 56 0 121 25 149 56 44 50 60 145 38
226 -26 91 -137 197 -245 233 -76 26 -198 28 -271 7z"/>
<path d="M1756 7191 c-99 -40 -145 -89 -167 -176 -13 -52 -9 -136 18 -365 13
-113 17 -240 17 -580 1 -416 2 -436 21 -469 38 -64 65 -76 168 -75 109 0 168
23 222 87 61 71 64 114 21 375 -50 305 -60 446 -53 769 6 311 0 365 -52 416
-25 26 -39 31 -88 34 -40 2 -73 -3 -107 -16z"/>
<path d="M3289 7106 c-40 -23 -49 -58 -64 -250 -18 -228 -29 -307 -72 -531
-42 -221 -51 -312 -33 -357 34 -86 116 -124 249 -116 85 5 132 24 158 65 20
30 24 120 10 236 l-8 68 63 -6 c113 -11 105 -3 111 -102 9 -163 35 -215 125
-255 49 -22 159 -34 223 -24 66 10 91 34 96 92 4 42 -3 69 -48 184 -58 148
-285 605 -366 741 -64 106 -151 190 -238 230 -77 37 -166 47 -206 25z m305
-528 l34 -88 -38 0 c-67 0 -70 3 -70 90 0 43 3 92 7 111 l6 33 13 -29 c7 -17
29 -69 48 -117z"/>
<path d="M1252 7018 c-129 -19 -313 -153 -429 -315 -93 -128 -147 -295 -123
-382 13 -51 69 -115 123 -142 22 -12 92 -38 156 -60 136 -47 171 -75 171 -139
0 -31 -5 -43 -25 -56 -51 -34 -118 0 -170 86 -28 47 -66 71 -118 77 -61 7
-113 -12 -161 -61 -61 -60 -89 -127 -89 -206 0 -103 50 -182 156 -251 81 -53
150 -77 258 -90 285 -34 499 95 570 346 22 78 17 256 -10 329 -48 134 -131
215 -258 254 -259 79 -248 74 -251 109 -4 42 26 73 71 73 22 0 49 -12 85 -40
29 -21 68 -42 86 -45 75 -15 166 37 209 119 17 33 21 58 21 131 0 79 -3 96
-27 140 -33 62 -45 77 -80 100 -37 24 -99 33 -165 23z"/>
<path d="M3679 5775 c-60 -19 -120 -84 -149 -161 -23 -61 -90 -322 -111 -432
-14 -73 -25 -85 -34 -40 -14 63 -127 394 -155 454 -37 76 -111 148 -171 165
-88 23 -210 9 -298 -36 -66 -33 -107 -69 -138 -123 -36 -61 -40 -150 -17 -412
14 -156 18 -321 20 -691 1 -434 3 -493 19 -543 34 -108 133 -161 256 -137 129
26 214 82 250 165 32 75 28 162 -19 406 -34 175 -71 398 -87 530 l-5 35 15
-30 c8 -16 33 -84 55 -150 117 -342 153 -419 206 -441 45 -19 68 -18 112 5 48
25 84 64 115 126 23 47 96 289 148 488 12 48 25 87 28 87 17 0 -27 -359 -70
-571 -48 -239 -44 -289 26 -289 57 0 246 149 310 246 96 144 175 544 175 890
0 163 -11 248 -40 305 -27 52 -103 115 -169 139 -74 28 -209 36 -272 15z"/>
<path d="M2223 5596 c-118 -30 -213 -95 -253 -172 -33 -64 -32 -154 3 -394 51
-347 58 -528 31 -805 -8 -88 -13 -187 -9 -219 17 -161 113 -236 300 -236 147
0 238 54 269 161 26 86 23 120 -33 434 -38 214 -46 321 -42 570 9 559 9 557
-19 597 -13 20 -37 44 -53 53 -38 22 -129 28 -194 11z"/>
<path d="M710 5429 c-80 -34 -109 -111 -90 -242 21 -148 114 -489 202 -742 57
-162 216 -310 463 -431 165 -80 298 -101 410 -65 140 46 223 133 261 276 17
61 18 166 3 237 -13 60 -59 161 -92 198 -33 37 -107 95 -150 117 l-38 19 37
24 c80 53 135 182 120 286 -19 145 -136 256 -306 294 -30 7 -183 16 -340 21
-157 4 -323 11 -370 14 -50 3 -95 1 -110 -6z m600 -324 c36 -19 50 -43 50 -87
0 -62 -29 -78 -138 -78 l-80 0 -11 75 c-17 113 -22 105 69 105 53 0 91 -5 110
-15z m1 -445 c83 -22 136 -80 145 -155 5 -42 2 -55 -16 -77 -18 -23 -29 -28
-65 -28 -60 0 -154 36 -165 63 -5 12 -14 54 -20 92 -6 39 -13 83 -17 99 l-6
29 54 -7 c30 -4 70 -11 90 -16z"/>
</g>
</svg>
